<?xml version="1.0" encoding="UTF-8" standalone="no"?>
<svg width="80px" height="80px" viewBox="0 0 80 80" version="1.1" xmlns="http://www.w3.org/2000/svg" xmlns:xlink="http://www.w3.org/1999/xlink">
    <!-- Generator: Sketch 3.8 (29681) - http://www.bohemiancoding.com/sketch -->
    <title>searchable numbers</title>
    <desc>Created with Sketch.</desc>
    <defs></defs>
    <g id="Page-7" stroke="none" stroke-width="1" fill="none" fill-rule="evenodd">
        <g id="searchable-numbers">
            <circle id="Oval-8" fill="#541C94" cx="40" cy="40" r="40"></circle>
            <path d="M46.8214286,43.9928571 L45.3128571,43.9928571 L44.7471429,43.4271429 C46.6328571,41.3528571 47.7642857,38.5242857 47.7642857,35.5071429 C47.7642857,28.7185714 42.2957143,23.25 35.5071429,23.25 C28.7185714,23.25 23.25,28.7185714 23.25,35.5071429 C23.25,42.2957143 28.7185714,47.7642857 35.5071429,47.7642857 C38.5242857,47.7642857 41.3528571,46.6328571 43.4271429,44.7471429 L43.9928571,45.3128571 L43.9928571,46.8214286 L53.4214286,56.25 L56.25,53.4214286 L46.8214286,43.9928571 L46.8214286,43.9928571 Z M35.5071429,43.9928571 C30.7928571,43.9928571 27.0214286,40.2214286 27.0214286,35.5071429 C27.0214286,30.7928571 30.7928571,27.0214286 35.5071429,27.0214286 C40.2214286,27.0214286 43.9928571,30.7928571 43.9928571,35.5071429 C43.9928571,40.2214286 40.2214286,43.9928571 35.5071429,43.9928571 L35.5071429,43.9928571 Z" id="Shape" fill="#FFFFFF"></path>
        </g>
    </g>
</svg>