<?xml version="1.0" encoding="UTF-8" standalone="no"?>
<svg width="80px" height="80px" viewBox="0 0 80 80" version="1.1" xmlns="http://www.w3.org/2000/svg" xmlns:xlink="http://www.w3.org/1999/xlink">
    <!-- Generator: Sketch 3.8 (29681) - http://www.bohemiancoding.com/sketch -->
    <title>monthly searches</title>
    <desc>Created with Sketch.</desc>
    <defs>
        <path d="M36.670247,21.9285714 L35.0948801,21.9285714 L34.5041174,21.3441558 C36.4733262,19.2012987 37.6548514,16.2792208 37.6548514,13.1623377 C37.6548514,6.14935065 31.9441461,0.5 24.8549946,0.5 C17.7658432,0.5 12.0551378,6.14935065 12.0551378,13.1623377 C12.0551378,20.1753247 17.7658432,25.8246753 24.8549946,25.8246753 C28.0057286,25.8246753 30.9595417,24.6558442 33.1256713,22.7077922 L33.7164339,23.2922078 L33.7164339,24.8506494 L43.5624776,34.5909091 L46.5162907,31.6688312 L36.670247,21.9285714 L36.670247,21.9285714 Z M24.8549946,21.9285714 C19.9319728,21.9285714 15.9935553,18.0324675 15.9935553,13.1623377 C15.9935553,8.29220779 19.9319728,4.3961039 24.8549946,4.3961039 C29.7780165,4.3961039 33.7164339,8.29220779 33.7164339,13.1623377 C33.7164339,18.0324675 29.7780165,21.9285714 24.8549946,21.9285714 L24.8549946,21.9285714 Z" id="path-1"></path>
        <mask id="mask-2" maskContentUnits="userSpaceOnUse" maskUnits="objectBoundingBox" x="-1" y="-1" width="36.4611529" height="36.0909091">
            <rect x="11.0551378" y="-0.5" width="36.4611529" height="36.0909091" fill="white"></rect>
            <use xlink:href="#path-1" fill="black"></use>
        </mask>
    </defs>
    <g id="Page-7" stroke="none" stroke-width="1" fill="none" fill-rule="evenodd">
        <g id="monthly-searches">
            <circle id="Oval-8" fill="#23C8A9" cx="40" cy="40" r="40"></circle>
            <g id="Monthly-searches" transform="translate(23.000000, 18.000000)">
                <g id="Group-14">
                    <path d="M23.3622032,25.8412789 L15.0185592,25.8412789 L15.0185592,34.0253313 L23.3622032,34.0253313 L23.3622032,25.8412789 L23.3622032,25.8412789 Z M21.6934744,7.83636364 L21.6934744,11.1099846 L8.34364401,11.1099846 L8.34364401,7.83636364 L5.00618641,7.83636364 L5.00618641,11.1099846 L3.3374576,11.1099846 C1.50185592,11.1099846 0,12.583114 0,14.3836055 L0,37.2989522 C0,39.0994438 1.50185592,40.5725732 3.3374576,40.5725732 L26.6996608,40.5725732 C28.5352625,40.5725732 30.0371184,39.0994438 30.0371184,37.2989522 L30.0371184,14.3836055 C30.0371184,12.583114 28.5352625,11.1099846 26.6996608,11.1099846 L25.030932,11.1099846 L25.030932,7.83636364 L21.6934744,7.83636364 L21.6934744,7.83636364 Z M26.6996608,37.2989522 L3.3374576,37.2989522 L3.3374576,19.294037 L26.6996608,19.294037 L26.6996608,37.2989522 L26.6996608,37.2989522 Z" id="Shape" fill="#FFFFFF"></path>
                    <g id="Shape">
                        <use fill="#FFFFFF" fill-rule="evenodd" xlink:href="#path-1"></use>
                        <use stroke="#23C8A9" mask="url(#mask-2)" stroke-width="2" xlink:href="#path-1"></use>
                    </g>
                </g>
            </g>
        </g>
    </g>
</svg>