<?xml version="1.0" encoding="UTF-8" standalone="no"?>
<svg width="80px" height="80px" viewBox="0 0 80 80" version="1.1" xmlns="http://www.w3.org/2000/svg" xmlns:xlink="http://www.w3.org/1999/xlink">
    <!-- Generator: Sketch 3.8 (29681) - http://www.bohemiancoding.com/sketch -->
    <title>spam numbers</title>
    <desc>Created with Sketch.</desc>
    <defs></defs>
    <g id="Page-7" stroke="none" stroke-width="1" fill="none" fill-rule="evenodd">
        <g id="spam-numbers">
            <circle id="Oval-8" fill="#F57647" cx="40" cy="40" r="40"></circle>
            <path d="M40,20 C29,20 20,29 20,40 C20,51 29,60 40,60 C51,60 60,51 60,40 C60,29 51,20 40,20 L40,20 Z M24,40 C24,31.2 31.2,24 40,24 C43.6,24 47,25.2 49.8,27.4 L27.4,49.8 C25.2,47 24,43.6 24,40 L24,40 Z M40,56 C36.4,56 33,54.8 30.2,52.6 L52.6,30.2 C54.8,33 56,36.4 56,40 C56,48.8 48.8,56 40,56 L40,56 Z" id="ic_top_spammer" fill="#FFFFFF"></path>
        </g>
    </g>
</svg>